<svg width="960" height="675" viewBox="0 0 960 675" fill="none" xmlns="http://www.w3.org/2000/svg">
<path d="M196.222 530.805C190.822 518.325 148.082 538.335 81.2223 534.805C36.9323 532.465 10.2523 521.285 2.22231 533.805C-4.55769 544.385 7.69231 562.975 10.2223 566.805C31.3223 598.805 76.5723 600.295 91.2223 600.805C104.842 601.275 127.042 602.055 149.222 588.805C164.332 579.785 173.582 567.745 181.222 557.805C192.602 542.995 198.292 535.595 196.222 530.805Z" fill="#BF7626"/>
<path d="M754.223 563.804C837.083 570.194 850.703 577.714 898.223 580.804C931.003 582.934 948.983 580.954 952.223 589.804C955.583 598.974 941.063 614.174 927.223 621.804C905.073 634.004 880.763 628.954 851.223 622.804C832.523 618.914 818.383 613.664 797.223 605.804C789.373 602.894 776.183 597.784 760.223 589.804C744.783 582.084 722.713 571.044 724.223 565.804C725.383 561.764 740.113 562.714 754.223 563.804Z" fill="#BF7626"/>
<path d="M216.222 416.804C207.062 413.774 199.202 415.114 189.222 416.804C182.422 417.954 163.532 421.424 147.222 436.804C141.822 441.894 134.372 448.924 131.222 460.804C129.992 465.454 126.932 476.984 132.222 484.804C141.162 498.004 168.582 492.754 189.222 488.804C221.002 482.724 242.682 478.574 247.222 462.804C252.032 446.074 235.542 423.184 216.222 416.804Z" fill="#5E6B66"/>
<path d="M747.013 439.804C766.563 434.414 783.433 431.984 795.953 430.804C832.513 427.354 858.373 432.094 889.573 437.804C906.703 440.944 919.753 444.314 932.123 453.804C937.783 458.144 946.093 464.694 949.143 475.804C952.803 489.114 948.253 506.574 936.373 512.804C929.363 516.484 922.673 514.744 899.133 508.804C883.183 504.784 867.143 501.064 851.263 496.804C811.013 486.004 811.383 489.664 787.433 481.804C774.553 477.574 733.033 463.944 734.243 450.804C734.703 445.864 741.073 442.234 747.013 439.804Z" fill="#5E6B66"/>
<path d="M260.843 481.805C259.773 478.675 256.773 477.455 205.073 466.805C173.953 460.395 167.673 459.315 157.883 458.805C139.523 457.835 125.903 459.745 111.763 461.805C82.8127 466.015 61.2127 469.165 38.8327 482.805C35.7627 484.675 17.7827 494.575 5.58271 512.805C1.31271 519.185 -0.707289 524.255 0.222711 529.805C1.62271 538.205 9.40271 543.405 13.0927 545.805C40.9827 563.965 99.2427 557.635 106.403 556.805C128.843 554.195 154.823 551.185 186.843 537.805C220.323 523.825 265.793 496.255 260.843 481.805Z" fill="#7E918A"/>
<path d="M681.223 518.804C680.733 501.514 702.193 487.624 711.193 481.804C717.343 477.824 735.033 467.414 776.303 465.804C796.733 465.004 850.023 465.304 905.483 494.804C936.103 511.094 945.533 524.654 949.923 532.804C959.583 550.734 959.273 569.124 959.223 570.804C958.983 579.394 958.863 584.944 956.123 589.804C942.273 614.364 872.823 602.144 842.443 596.804C819.723 592.804 794.553 586.464 767.003 575.804C724.753 559.464 681.903 542.884 681.223 518.804Z" fill="#7E918A"/>
<path d="M378.722 558.304C322.202 544.404 282.862 534.734 248.722 501.304C217.342 470.584 206.052 435.174 202.722 424.304C199.322 413.214 195.702 397.574 194.722 358.304C193.302 301.504 192.442 273.114 201.722 237.304C205.092 224.314 221.132 166.304 271.722 111.304C301.152 79.3135 329.872 61.8035 345.722 52.3035C400.772 19.3135 452.552 8.39354 482.722 4.30354C510.882 0.48354 551.862 -4.66646 602.722 8.30354C676.352 27.0735 721.032 71.1635 732.722 83.3035C781.642 134.084 796.222 189.374 803.722 219.304C809.882 243.914 824.892 307.134 802.722 380.304C795.692 403.514 784.762 438.104 753.722 468.304C734.752 486.754 717.142 494.954 687.722 508.304C658.892 521.394 647.632 523.224 523.722 554.304C488.362 563.174 465.022 569.104 431.722 567.304C411.112 566.194 396.322 562.634 378.722 558.304Z" fill="#AECEC4"/>
<path d="M571.692 14.9732C569.742 13.9732 570.702 11.0132 572.872 11.3532C591.552 14.2732 615.913 20.2332 642.223 32.8032C654.143 38.5032 706.753 63.8532 745.223 123.803C771.952 165.443 787.253 212.483 781.223 215.803C775.452 218.973 754.083 179.933 693.223 112.803C660.943 77.2032 639.993 58.4432 616.223 41.8032C599.573 30.1532 584.192 21.3832 571.692 14.9732Z" fill="#829991"/>
<path d="M364.223 521.803C374.803 514.183 388.773 501.783 398.223 482.803C407.953 463.263 407.223 448.173 414.223 446.803C425.763 444.553 430.653 484.973 457.223 493.803C486.173 503.423 524.273 470.023 530.223 464.803C552.103 445.623 554.133 431.013 568.223 428.803C588.843 425.573 593.993 461.773 618.223 465.803C650.443 471.163 689.683 418.173 707.223 376.803C720.373 345.783 719.473 325.673 724.223 325.803C732.333 326.023 748.873 384.983 727.223 439.803C722.913 450.723 709.183 481.463 677.223 503.803C662.223 514.283 653.493 515.723 599.223 529.803C512.423 552.323 499.273 557.853 467.223 557.803C435.833 557.753 415.713 552.403 399.223 544.803C383.323 537.473 371.693 528.463 364.223 521.803Z" fill="#748780"/>
<path d="M367.222 67.8048C365.802 65.7148 337.032 79.1448 309.222 101.805C264.012 138.645 243.842 181.535 239.222 191.805C214.302 247.225 215.352 302.035 219.222 302.805C222.372 303.425 227.132 268.335 251.222 213.805C262.622 187.995 274.242 161.695 296.222 133.805C330.792 89.9348 368.872 70.2448 367.222 67.8048Z" fill="#CCEAE0"/>
<path d="M470.223 576.803C456.193 575.793 435.353 574.993 410.223 576.803C375.563 579.303 364.303 584.003 326.223 589.803C279.963 596.853 256.713 599.503 232.223 594.803C182.293 585.213 159.193 555.463 146.223 565.803C136.513 573.543 141.963 596.173 147.223 607.803C156.483 628.273 176.573 635.943 194.223 642.803C244.983 662.543 292.163 652.453 308.223 648.803C319.383 646.263 314.483 646.253 366.223 626.803C412.043 609.583 435.183 600.963 446.223 600.803C472.573 600.413 493.123 610.883 534.223 631.803C575.433 652.783 569.123 656.863 593.223 665.803C593.223 665.803 651.753 687.523 712.223 663.803C724.123 659.133 735.993 652.693 745.223 640.803C755.203 627.943 762.643 608.003 756.223 601.803C750.773 596.543 738.123 603.873 723.223 608.803C698.463 617.003 678.383 614.603 638.223 609.803C582.043 603.093 570.503 587.723 506.223 579.803C490.703 577.893 478.013 577.143 470.223 576.803Z" fill="#DD882C"/>
<path d="M393.212 587.804C373.602 589.974 360.972 594.084 344.552 598.804C307.472 609.464 288.932 614.794 271.562 616.804C256.692 618.524 231.912 615.284 182.352 608.804C162.282 606.184 151.972 604.374 145.852 595.804C135.052 580.674 146.332 557.054 147.882 553.804C157.992 532.634 177.332 523.194 194.512 514.804C203.692 510.324 229.922 498.584 266.492 497.804C292.642 497.244 311.812 502.544 334.412 508.804C365.322 517.354 393.752 531.154 399.292 533.804C427.862 547.454 433.682 553.934 448.962 553.804C463.982 553.674 470.262 547.324 494.582 535.804C494.582 535.804 523.932 521.904 561.492 511.804C583.732 505.824 609.562 498.874 642.592 501.804C661.032 503.444 696.142 506.554 726.732 532.804C738.112 542.574 757.792 557.244 761.202 581.804C761.792 586.034 764.282 604.014 753.092 617.804C746.422 626.024 737.612 629.414 725.722 632.804C697.582 640.824 678.002 646.404 649.692 643.804C634.002 642.364 632.952 640.004 572.642 618.804C515.882 598.854 500.642 595.264 487.482 592.804C476.132 590.684 456.822 587.624 432.742 586.804C421.692 586.424 409.102 586.044 393.212 587.804Z" fill="#95ADA4"/>
<path d="M367.303 250.165C382.253 238.515 397.933 229.175 413.603 222.215C418.003 220.255 415.813 213.595 411.113 214.655C393.243 218.665 375.363 226.935 359.223 239.515C343.273 251.945 330.983 267.065 322.733 283.195C320.523 287.525 326.433 291.345 329.443 287.525C339.923 274.295 352.623 261.615 367.303 250.165Z" fill="#23251A"/>
<path d="M641.943 250.165C626.993 238.515 611.313 229.175 595.643 222.215C591.243 220.255 593.433 213.595 598.133 214.655C616.003 218.665 633.883 226.935 650.023 239.515C665.973 251.945 678.263 267.065 686.513 283.195C688.723 287.525 682.813 291.345 679.803 287.525C669.323 274.295 656.623 261.615 641.943 250.165Z" fill="#23251A"/>
<path d="M501.813 412.443C529.129 412.443 551.273 393.415 551.273 369.943C551.273 346.471 529.129 327.443 501.813 327.443C474.497 327.443 452.353 346.471 452.353 369.943C452.353 393.415 474.497 412.443 501.813 412.443Z" fill="#23251A"/>
</svg>
