<svg width="160" height="40" viewBox="0 0 955 313" fill="none" xmlns="http://www.w3.org/2000/svg">
<path d="M128.5 56C57.5 56 3.72529e-07 111 3.72529e-07 184.5C3.72529e-07 258 57.5 312.5 128.5 312.5C199.5 312.5 257 258 257 184.5C257 111 199.5 56 128.5 56ZM128.5 98C171 98 205.5 129 205.5 184.5C205.5 239.5 171 270.5 128.5 270.5C86 270.5 51.5 239.5 51.5 184.5C51.5 129 86 98 128.5 98ZM505.549 270L470.049 238C455.549 258 434.549 270.5 411.049 270.5C368.549 270.5 334.049 234.5 334.049 184.5C334.049 134 368.549 98 411.049 98C434.549 98 455.549 111 470.049 130.5L505.549 98.5C482.049 72.5 448.549 56 411.049 56C340.049 56 282.549 111 282.549 184.5C282.549 258 340.049 312.5 411.049 312.5C448.549 312.5 482.049 296 505.549 270ZM667.173 265C621.673 274 622.673 254.5 622.673 204.5V100.5H667.173V58.5H622.673V-2.38419e-06H571.173V58.5H541.173V100.5H571.173V214.5C571.173 281.5 582.673 312.5 627.673 312.5C646.173 312.5 655.673 309.5 667.173 305V265ZM826.109 56C755.109 56 697.609 111 697.609 184.5C697.609 258 755.109 312.5 826.109 312.5C897.109 312.5 954.609 258 954.609 184.5C954.609 111 897.109 56 826.109 56ZM826.109 98C868.609 98 903.109 129 903.109 184.5C903.109 239.5 868.609 270.5 826.109 270.5C783.609 270.5 749.109 239.5 749.109 184.5C749.109 129 783.609 98 826.109 98Z" fill="black"/>
</svg>
