<svg width="650" height="500" viewBox="0 0 1733 887" fill="none" xmlns="http://www.w3.org/2000/svg">
<path d="M1395.51 501.905C1393.68 497.675 1379.19 504.457 1356.53 503.261C1341.52 502.468 1332.47 498.679 1329.75 502.922C1327.46 506.508 1331.61 512.809 1332.46 514.107C1339.62 524.953 1354.95 525.458 1359.92 525.63C1364.53 525.79 1372.06 526.054 1379.58 521.563C1384.7 518.506 1387.83 514.425 1390.42 511.056C1394.28 506.037 1396.21 503.529 1395.51 501.905Z" fill="#D19C26"/>
<path d="M1584.63 513.09C1612.71 515.255 1617.33 517.804 1633.43 518.851C1644.54 519.573 1650.64 518.902 1651.74 521.902C1652.88 525.01 1647.95 530.162 1643.26 532.748C1635.76 536.883 1627.52 535.171 1617.5 533.087C1611.17 531.768 1606.37 529.989 1599.2 527.325C1596.54 526.338 1592.07 524.607 1586.66 521.902C1581.43 519.285 1573.95 515.544 1574.46 513.768C1574.85 512.398 1579.85 512.72 1584.63 513.09Z" fill="#D19C26"/>
<path d="M1402.28 463.27C1399.18 462.243 1396.51 462.697 1393.13 463.27C1390.83 463.66 1384.43 464.836 1378.9 470.048C1377.07 471.773 1374.54 474.156 1373.47 478.183C1373.06 479.759 1372.02 483.667 1373.81 486.317C1376.84 490.791 1386.14 489.011 1393.13 487.673C1403.9 485.612 1411.25 484.205 1412.79 478.861C1414.42 473.19 1408.83 465.432 1402.28 463.27Z" fill="#1C8446"/>
<path d="M1582.18 471.062C1588.81 469.235 1594.53 468.411 1598.77 468.011C1611.16 466.842 1619.93 468.449 1630.5 470.384C1636.31 471.448 1640.73 472.59 1644.92 475.807C1646.84 477.278 1649.66 479.498 1650.69 483.263C1651.93 487.774 1650.39 493.692 1646.36 495.804C1643.99 497.051 1641.72 496.461 1633.74 494.448C1628.34 493.085 1622.9 491.825 1617.52 490.381C1603.88 486.72 1604 487.961 1595.88 485.297C1591.52 483.863 1577.45 479.244 1577.86 474.79C1578.01 473.116 1580.17 471.885 1582.18 471.062Z" fill="#1C8446"/>
<path d="M1417.41 485.298C1417.04 484.237 1416.03 483.823 1398.51 480.214C1387.96 478.041 1385.83 477.675 1382.51 477.502C1376.29 477.173 1371.67 477.821 1366.88 478.519C1357.07 479.946 1349.75 481.013 1342.16 485.636C1341.12 486.27 1335.03 489.626 1330.89 495.804C1329.44 497.967 1328.76 499.685 1329.08 501.566C1329.55 504.413 1332.19 506.176 1333.44 506.989C1342.89 513.144 1362.64 510.999 1365.06 510.717C1372.67 509.833 1381.47 508.812 1392.33 504.278C1403.67 499.539 1419.09 490.195 1417.41 485.298Z" fill="#239B53"/>
<path d="M1559.89 497.838C1559.72 491.978 1566.99 487.27 1570.04 485.297C1572.13 483.949 1578.12 480.42 1592.11 479.875C1599.04 479.603 1617.1 479.705 1635.89 489.704C1646.27 495.225 1649.47 499.821 1650.96 502.583C1654.23 508.66 1654.13 514.893 1654.11 515.462C1654.03 518.374 1653.99 520.255 1653.06 521.902C1648.36 530.226 1624.83 526.084 1614.53 524.274C1606.83 522.919 1598.3 520.77 1588.96 517.157C1574.64 511.619 1560.12 505.999 1559.89 497.838Z" fill="#239B53"/>
<path d="M1457.36 511.226C1438.2 506.514 1424.87 503.237 1413.3 491.907C1402.66 481.495 1398.84 469.493 1397.71 465.809C1396.56 462.05 1395.33 456.749 1395 443.44C1394.52 424.188 1394.22 414.566 1397.37 402.429C1398.51 398.026 1403.95 378.365 1421.09 359.724C1431.07 348.882 1440.8 342.947 1446.18 339.727C1464.83 328.546 1482.38 324.845 1492.61 323.459C1502.15 322.164 1516.04 320.418 1533.28 324.814C1558.24 331.176 1573.38 346.119 1577.34 350.234C1593.92 367.445 1598.86 386.184 1601.41 396.328C1603.49 404.67 1608.58 426.097 1601.07 450.896C1598.68 458.763 1594.98 470.486 1584.46 480.722C1578.03 486.975 1572.06 489.754 1562.09 494.279C1552.32 498.716 1548.5 499.336 1506.5 509.87C1494.52 512.876 1486.61 514.886 1475.32 514.276C1468.34 513.9 1463.33 512.693 1457.36 511.226Z" fill="#28E084"/>
<path d="M1522.76 327.078C1522.1 326.739 1522.43 325.736 1523.16 325.851C1529.49 326.841 1537.75 328.861 1546.67 333.121C1550.71 335.053 1568.54 343.645 1581.58 363.964C1590.64 378.077 1595.82 394.02 1593.78 395.145C1591.82 396.22 1584.58 382.988 1563.95 360.235C1553.01 348.169 1545.91 341.811 1537.86 336.171C1532.21 332.223 1527 329.25 1522.76 327.078Z" fill="#239B53"/>
<path d="M1452.44 498.856C1456.03 496.274 1460.77 492.071 1463.97 485.638C1467.27 479.015 1467.02 473.901 1469.39 473.436C1473.3 472.674 1474.96 486.373 1483.96 489.366C1493.78 492.627 1506.69 481.306 1508.71 479.537C1516.12 473.037 1516.81 468.085 1521.59 467.336C1528.57 466.241 1530.32 478.51 1538.53 479.876C1549.45 481.693 1562.75 463.733 1568.7 449.711C1573.15 439.198 1572.85 432.382 1574.46 432.426C1577.21 432.501 1582.81 452.484 1575.48 471.064C1574.01 474.765 1569.36 485.184 1558.53 492.755C1553.45 496.307 1550.49 496.796 1532.09 501.568C1502.67 509.2 1498.22 511.075 1487.35 511.058C1476.72 511.041 1469.9 509.227 1464.31 506.652C1458.92 504.167 1454.98 501.113 1452.44 498.856Z" fill="#239B53"/>
<path d="M1453.46 344.98C1452.98 344.272 1443.23 348.824 1433.8 356.504C1418.48 368.99 1411.65 383.527 1410.08 387.008C1401.63 405.791 1401.99 424.368 1403.3 424.629C1404.37 424.839 1405.98 412.946 1414.15 394.464C1418.01 385.716 1421.95 376.803 1429.4 367.35C1441.12 352.481 1454.02 345.807 1453.46 344.98Z" fill="#9EFF99"/>
<path d="M1488.37 517.497C1483.62 517.155 1476.55 516.884 1468.04 517.497C1456.29 518.344 1452.47 519.937 1439.57 521.903C1423.89 524.293 1416.01 525.191 1407.71 523.598C1390.78 520.347 1382.95 510.264 1378.56 513.769C1375.27 516.392 1377.12 524.062 1378.9 528.004C1382.04 534.942 1388.85 537.541 1394.83 539.866C1412.03 546.557 1428.02 543.137 1433.47 541.9C1437.25 541.039 1435.59 541.036 1453.12 534.443C1468.65 528.607 1476.5 525.686 1480.24 525.631C1489.17 525.499 1496.13 529.048 1510.06 536.138C1524.03 543.249 1521.89 544.632 1530.06 547.662C1530.06 547.662 1549.9 555.023 1570.39 546.984C1574.43 545.401 1578.45 543.218 1581.58 539.188C1584.96 534.83 1587.48 528.072 1585.31 525.97C1583.46 524.187 1579.17 526.672 1574.12 528.343C1565.73 531.122 1558.92 530.309 1545.31 528.682C1526.27 526.407 1522.36 521.198 1500.57 518.514C1495.31 517.866 1491.01 517.612 1488.37 517.497Z" fill="#DDB222"/>
<path d="M1462.27 521.224C1455.62 521.96 1451.34 523.353 1445.78 524.953C1433.21 528.566 1426.93 530.372 1421.04 531.053C1416 531.636 1407.6 530.538 1390.8 528.342C1384 527.454 1380.51 526.841 1378.43 523.936C1374.77 518.808 1378.6 510.802 1379.12 509.701C1382.55 502.526 1389.1 499.326 1394.93 496.483C1398.04 494.964 1406.93 490.985 1419.32 490.721C1428.19 490.531 1434.68 492.327 1442.34 494.449C1452.82 497.347 1462.45 502.024 1464.33 502.922C1474.02 507.549 1475.99 509.745 1481.17 509.701C1486.26 509.657 1488.39 507.505 1496.63 503.6C1496.63 503.6 1506.58 498.889 1519.31 495.466C1526.84 493.439 1535.6 491.083 1546.79 492.077C1553.04 492.632 1564.94 493.686 1575.31 502.583C1579.17 505.895 1585.84 510.867 1586.99 519.191C1587.19 520.625 1588.04 526.719 1584.25 531.392C1581.98 534.178 1579 535.327 1574.97 536.476C1565.43 539.195 1558.8 541.086 1549.2 540.205C1543.88 539.716 1543.53 538.917 1523.09 531.731C1503.85 524.97 1498.68 523.753 1494.22 522.919C1490.38 522.201 1483.83 521.163 1475.67 520.886C1471.92 520.757 1467.66 520.628 1462.27 521.224Z" fill="#26BF6B"/>
<path d="M1450.72 443.951C1460.64 443.951 1468.68 434.846 1468.68 423.615C1468.68 412.384 1460.64 403.279 1450.72 403.279C1440.8 403.279 1432.75 412.384 1432.75 423.615C1432.75 434.846 1440.8 443.951 1450.72 443.951Z" fill="#23251A"/>
<path d="M1456.31 422.617C1460.52 422.617 1463.94 419.654 1463.94 415.998C1463.94 412.342 1460.52 409.379 1456.31 409.379C1452.1 409.379 1448.68 412.342 1448.68 415.998C1448.68 419.654 1452.1 422.617 1456.31 422.617Z" fill="white"/>
<path d="M1448.68 431.748C1450.93 431.748 1452.75 429.927 1452.75 427.68C1452.75 425.434 1450.93 423.613 1448.68 423.613C1446.44 423.613 1444.62 425.434 1444.62 427.68C1444.62 429.927 1446.44 431.748 1448.68 431.748Z" fill="white"/>
<path d="M1547.31 443.951C1557.23 443.951 1565.28 434.846 1565.28 423.615C1565.28 412.384 1557.23 403.279 1547.31 403.279C1537.39 403.279 1529.35 412.384 1529.35 423.615C1529.35 434.846 1537.39 443.951 1547.31 443.951Z" fill="#23251A"/>
<path d="M1552.91 422.617C1557.12 422.617 1560.53 419.654 1560.53 415.998C1560.53 412.342 1557.12 409.379 1552.91 409.379C1548.69 409.379 1545.28 412.342 1545.28 415.998C1545.28 419.654 1548.69 422.617 1552.91 422.617Z" fill="white"/>
<path d="M1545.28 431.748C1547.53 431.748 1549.35 429.927 1549.35 427.68C1549.35 425.434 1547.53 423.613 1545.28 423.613C1543.03 423.613 1541.21 425.434 1541.21 427.68C1541.21 429.927 1543.03 431.748 1545.28 431.748Z" fill="white"/>
<path d="M1491.74 469.368C1493.29 465.596 1496.05 463.034 1499.33 462.858C1502.85 462.668 1506.08 465.295 1507.99 469.368H1510.54C1508.29 464.074 1503.98 460.573 1499.22 460.827C1494.8 461.065 1491.11 464.478 1489.27 469.368H1491.74Z" fill="#23251A"/>
<path d="M1040.99 545.433C1038.05 538.628 1014.75 549.539 978.288 547.614C954.138 546.338 939.59 540.242 935.212 547.069C931.515 552.838 938.195 562.974 939.574 565.063C951.079 582.511 975.753 583.324 983.741 583.602C991.168 583.858 1003.27 584.283 1015.37 577.058C1023.61 572.14 1028.65 565.575 1032.82 560.155C1039.02 552.08 1042.12 548.045 1040.99 545.433Z" fill="#239B53"/>
<path d="M1345.26 563.427C1390.44 566.911 1397.86 571.012 1423.77 572.697C1441.65 573.858 1451.45 572.779 1453.22 577.604C1455.05 582.604 1447.13 590.892 1439.59 595.053C1427.51 601.705 1414.25 598.952 1398.15 595.598C1387.95 593.477 1380.24 590.614 1368.7 586.329C1364.42 584.742 1357.23 581.955 1348.53 577.604C1340.11 573.395 1328.07 567.375 1328.9 564.518C1329.53 562.315 1337.56 562.833 1345.26 563.427Z" fill="#239B53"/>
<path d="M1051.9 483.275C1046.9 481.623 1042.62 482.353 1037.18 483.275C1033.47 483.902 1023.17 485.794 1014.27 494.18C1011.33 496.956 1007.27 500.789 1005.55 507.267C1004.88 509.802 1003.21 516.089 1006.1 520.353C1010.97 527.551 1025.92 524.688 1037.18 522.534C1054.5 519.219 1066.33 516.956 1068.8 508.357C1071.42 499.235 1062.43 486.754 1051.9 483.275Z" fill="#BA8824"/>
<path d="M1341.32 495.811C1351.98 492.872 1361.18 491.547 1368.01 490.903C1387.94 489.022 1402.05 491.606 1419.06 494.72C1428.4 496.432 1435.51 498.27 1442.26 503.444C1445.35 505.811 1449.88 509.382 1451.54 515.44C1453.54 522.698 1451.05 532.218 1444.58 535.615C1440.75 537.622 1437.11 536.673 1424.27 533.434C1415.57 531.242 1406.83 529.214 1398.17 526.891C1376.22 521.002 1376.42 522.998 1363.36 518.712C1356.34 516.405 1333.7 508.973 1334.36 501.809C1334.61 499.115 1338.09 497.136 1341.32 495.811Z" fill="#BA8824"/>
<path d="M1076.23 518.714C1075.65 517.008 1074.01 516.342 1045.82 510.535C1028.85 507.04 1025.43 506.451 1020.09 506.173C1010.08 505.644 1002.65 506.686 994.941 507.809C979.155 510.104 967.378 511.822 955.174 519.259C953.5 520.279 943.696 525.677 937.044 535.618C934.716 539.096 933.614 541.861 934.121 544.887C934.885 549.467 939.127 552.303 941.139 553.612C956.347 563.514 988.114 560.062 992.018 559.61C1004.25 558.186 1018.42 556.545 1035.88 549.249C1054.14 541.626 1078.93 526.593 1076.23 518.714Z" fill="#D19C26"/>
<path d="M1305.45 538.888C1305.18 529.461 1316.89 521.887 1321.79 518.713C1325.15 516.543 1334.79 510.867 1357.3 509.989C1368.43 509.553 1397.49 509.716 1427.73 525.802C1444.43 534.684 1449.57 542.078 1451.97 546.522C1457.23 556.299 1457.06 566.326 1457.04 567.242C1456.91 571.926 1456.84 574.953 1455.35 577.603C1447.79 590.994 1409.92 584.331 1393.36 581.419C1380.97 579.238 1367.25 575.781 1352.22 569.969C1329.19 561.059 1305.82 552.018 1305.45 538.888Z" fill="#D19C26"/>
<path d="M1140.51 560.427C1109.69 552.847 1088.24 547.575 1069.62 529.346C1052.51 512.595 1046.35 493.287 1044.54 487.36C1042.68 481.313 1040.71 472.785 1040.18 451.372C1039.4 420.401 1038.93 404.921 1043.99 385.395C1045.83 378.312 1054.58 346.68 1082.16 316.691C1098.21 299.247 1113.87 289.7 1122.51 284.52C1152.53 266.531 1180.76 260.577 1197.21 258.347C1212.57 256.264 1234.91 253.456 1262.65 260.528C1302.8 270.762 1327.16 294.803 1333.53 301.423C1360.21 329.112 1368.16 359.26 1372.25 375.58C1375.61 388.999 1383.79 423.471 1371.7 463.368C1367.87 476.024 1361.91 494.885 1344.98 511.352C1334.64 521.412 1325.04 525.884 1308.99 533.163C1293.27 540.301 1287.13 541.299 1219.57 558.246C1200.29 563.082 1187.56 566.316 1169.41 565.334C1158.17 564.729 1150.1 562.788 1140.51 560.427Z" fill="#E2C127"/>
<path d="M1245.73 264.168C1244.66 263.623 1245.19 262.009 1246.37 262.194C1256.56 263.787 1269.84 267.036 1284.19 273.89C1290.68 276.999 1319.37 290.821 1340.35 323.51C1354.92 346.215 1363.27 371.865 1359.98 373.675C1356.83 375.404 1345.18 354.116 1311.99 317.512C1294.39 298.101 1282.97 287.871 1270.01 278.798C1260.93 272.446 1252.54 267.663 1245.73 264.168Z" fill="#DD9922"/>
<path d="M1132.6 540.526C1138.37 536.371 1145.98 529.609 1151.14 519.26C1156.44 508.606 1156.04 500.377 1159.86 499.63C1166.15 498.404 1168.82 520.443 1183.31 525.258C1199.09 530.504 1219.87 512.292 1223.11 509.445C1235.04 498.987 1236.15 491.021 1243.83 489.816C1255.08 488.054 1257.88 507.793 1271.1 509.991C1288.67 512.913 1310.06 484.019 1319.63 461.461C1326.8 444.547 1326.31 433.582 1328.9 433.653C1333.32 433.773 1342.34 465.922 1330.53 495.814C1328.18 501.768 1320.69 518.53 1303.27 530.711C1295.09 536.425 1290.33 537.211 1260.74 544.888C1213.41 557.167 1206.24 560.183 1188.76 560.156C1171.64 560.128 1160.67 557.211 1151.68 553.067C1143.01 549.07 1136.67 544.157 1132.6 540.526Z" fill="#DD9922"/>
<path d="M1134.24 292.972C1133.46 291.832 1117.77 299.155 1102.61 311.511C1077.96 331.599 1066.96 354.985 1064.44 360.585C1050.85 390.804 1051.42 420.69 1053.54 421.11C1055.25 421.448 1057.85 402.315 1070.98 372.581C1077.2 358.508 1083.54 344.167 1095.52 328.96C1114.37 305.038 1135.13 294.302 1134.24 292.972Z" fill="#F2DA2F"/>
<path d="M1190.4 570.516C1182.75 569.965 1171.39 569.529 1157.68 570.516C1138.78 571.879 1132.64 574.442 1111.88 577.604C1086.66 581.448 1073.98 582.893 1060.62 580.331C1033.4 575.101 1020.8 558.88 1013.73 564.518C1008.44 568.738 1011.41 581.078 1014.28 587.419C1019.33 598.581 1030.28 602.763 1039.9 606.504C1067.58 617.267 1093.31 611.765 1102.06 609.775C1108.15 608.39 1105.48 608.385 1133.69 597.779C1158.67 588.39 1171.29 583.689 1177.31 583.602C1191.68 583.389 1202.89 589.098 1225.3 600.506C1247.77 611.945 1244.33 614.17 1257.47 619.045C1257.47 619.045 1289.38 630.888 1322.35 617.954C1328.84 615.408 1335.32 611.896 1340.35 605.413C1345.79 598.401 1349.85 587.528 1346.35 584.147C1343.37 581.279 1336.48 585.276 1328.35 587.964C1314.85 592.436 1303.9 591.127 1282 588.51C1251.37 584.851 1245.08 576.47 1210.03 572.151C1201.57 571.11 1194.65 570.701 1190.4 570.516Z" fill="#26BF6B"/>
<path d="M1148.41 576.515C1137.71 577.698 1130.83 579.939 1121.87 582.513C1101.66 588.325 1091.55 591.231 1082.08 592.327C1073.97 593.265 1060.46 591.499 1033.43 587.965C1022.49 586.537 1016.87 585.55 1013.53 580.877C1007.64 572.627 1013.79 559.747 1014.64 557.975C1020.15 546.432 1030.69 541.285 1040.06 536.71C1045.07 534.267 1059.37 527.865 1079.31 527.44C1093.57 527.135 1104.02 530.025 1116.35 533.438C1133.2 538.1 1148.7 545.625 1151.72 547.07C1167.3 554.513 1170.47 558.046 1178.81 557.975C1187 557.904 1190.42 554.442 1203.68 548.16C1203.68 548.16 1219.69 540.581 1240.17 535.074C1252.29 531.813 1266.38 528.024 1284.39 529.621C1294.44 530.515 1313.59 532.211 1330.27 546.525C1336.47 551.852 1347.2 559.851 1349.06 573.243C1349.38 575.549 1350.74 585.353 1344.64 592.873C1341 597.355 1336.2 599.203 1329.72 601.052C1314.37 605.425 1303.7 608.467 1288.26 607.05C1279.7 606.265 1279.13 604.978 1246.25 593.418C1215.3 582.54 1206.99 580.582 1199.81 579.241C1193.62 578.085 1183.09 576.416 1169.96 575.969C1163.94 575.762 1157.07 575.555 1148.41 576.515Z" fill="#EFB222"/>
<path d="M1117.78 428.64C1127.44 414.196 1144.84 408.885 1156.63 416.775C1157.82 417.571 1158.91 418.476 1159.9 419.469C1160.87 420.445 1162.53 419.196 1161.93 417.931C1160.39 414.676 1158.11 411.917 1155.1 409.905C1143.78 402.331 1126.49 408.312 1116.5 423.264C1114.23 426.655 1112.53 430.221 1111.39 433.788C1110.78 435.701 1113.6 436.748 1114.38 434.905C1115.3 432.768 1116.43 430.669 1117.78 428.64Z" fill="#23251A"/>
<path d="M1300.09 428.64C1290.43 414.196 1273.03 408.885 1261.24 416.775C1260.05 417.571 1258.96 418.476 1257.97 419.469C1257 420.445 1255.34 419.196 1255.93 417.931C1257.48 414.676 1259.76 411.917 1262.77 409.905C1274.09 402.331 1291.38 408.312 1301.37 423.264C1303.64 426.655 1305.34 430.221 1306.48 433.788C1307.09 435.701 1304.27 436.748 1303.49 434.905C1302.57 432.768 1301.44 430.669 1300.09 428.64Z" fill="#23251A"/>
<path d="M1209.95 485.246C1200.33 485.759 1191.98 475.939 1191.3 463.31L1186.95 463.545C1187.72 477.978 1198.1 489.156 1210.13 488.513C1222.16 487.869 1231.28 475.644 1230.51 461.211L1226.15 461.445C1226.83 474.074 1219.58 484.728 1209.95 485.246Z" fill="#23251A"/>
<path d="M1079.46 450.566C1070.54 444.067 1058.04 446.035 1051.55 454.956L1050.49 456.412L1049.03 455.354C1040.11 448.854 1027.61 450.823 1021.11 459.743C1014.61 468.664 1016.58 481.167 1025.5 487.661L1026.96 488.719L1059.27 512.247L1082.8 479.935L1083.86 478.479C1090.35 469.564 1088.38 457.066 1079.46 450.566Z" fill="#D60000"/>
<path d="M1379.85 276.279C1374.76 266.485 1362.69 262.674 1352.9 267.761L1351.3 268.59L1350.47 266.993C1345.38 257.2 1333.32 253.388 1323.53 258.475C1313.73 263.568 1309.92 275.63 1315.01 285.423L1315.84 287.02L1334.27 322.485L1369.74 304.049L1371.34 303.22C1381.12 298.138 1384.94 286.072 1379.85 276.279Z" fill="#D60000"/>
<path d="M1384.76 500.74C1377.27 492.632 1364.63 492.13 1356.52 499.622L1355.2 500.844L1353.98 499.524C1346.49 491.416 1333.85 490.915 1325.74 498.407C1317.63 505.899 1317.13 518.538 1324.62 526.646L1325.84 527.966L1352.97 557.328L1382.33 530.207L1383.65 528.985C1391.75 521.493 1392.25 508.848 1384.76 500.74Z" fill="#D60000"/>
<path d="M706.392 227.905C704.562 223.675 690.076 230.457 667.415 229.261C652.404 228.468 643.361 224.679 640.64 228.922C638.342 232.508 642.494 238.809 643.351 240.107C650.503 250.953 665.839 251.458 670.805 251.63C675.421 251.79 682.945 252.054 690.462 247.563C695.584 244.506 698.719 240.425 701.308 237.056C705.165 232.037 707.094 229.529 706.392 227.905Z" fill="#2970A8"/>
<path d="M895.515 239.09C923.599 241.255 928.215 243.804 944.321 244.851C955.431 245.573 961.525 244.902 962.623 247.902C963.762 251.01 958.841 256.162 954.15 258.748C946.643 262.883 938.403 261.171 928.391 259.087C922.053 257.768 917.261 255.989 910.089 253.325C907.428 252.338 902.958 250.607 897.549 247.902C892.316 245.285 884.835 241.544 885.347 239.768C885.74 238.398 890.733 238.72 895.515 239.09Z" fill="#2970A8"/>
<path d="M713.17 189.27C710.065 188.243 707.402 188.697 704.019 189.27C701.714 189.66 695.312 190.836 689.784 196.048C687.954 197.773 685.429 200.156 684.361 204.183C683.944 205.759 682.907 209.667 684.7 212.317C687.73 216.791 697.023 215.011 704.019 213.673C714.79 211.612 722.138 210.205 723.677 204.861C725.307 199.19 719.718 191.432 713.17 189.27Z" fill="#912588"/>
<path d="M893.071 197.062C899.697 195.235 905.415 194.411 909.659 194.011C922.05 192.842 930.814 194.449 941.389 196.384C947.195 197.448 951.618 198.59 955.811 201.807C957.729 203.278 960.545 205.498 961.579 209.263C962.82 213.774 961.277 219.692 957.251 221.804C954.875 223.051 952.608 222.461 944.629 220.448C939.223 219.085 933.787 217.825 928.405 216.381C914.763 212.72 914.888 213.961 906.771 211.297C902.405 209.863 888.333 205.244 888.743 200.79C888.899 199.116 891.058 197.885 893.071 197.062Z" fill="#912588"/>
<path d="M728.294 211.298C727.931 210.237 726.915 209.823 709.392 206.214C698.844 204.041 696.716 203.675 693.398 203.502C687.175 203.173 682.559 203.821 677.766 204.519C667.954 205.946 660.634 207.013 653.048 211.636C652.008 212.27 645.914 215.626 641.779 221.804C640.332 223.967 639.647 225.685 639.962 227.566C640.437 230.413 643.074 232.176 644.324 232.989C653.777 239.144 673.523 236.999 675.95 236.717C683.555 235.833 692.361 234.812 703.213 230.278C714.561 225.539 729.972 216.195 728.294 211.298Z" fill="#AA4BA3"/>
<path d="M870.773 223.838C870.607 217.978 877.881 213.27 880.931 211.297C883.015 209.949 889.011 206.42 902.999 205.875C909.923 205.603 927.985 205.705 946.782 215.704C957.16 221.225 960.356 225.821 961.844 228.583C965.118 234.66 965.013 240.893 964.996 241.462C964.914 244.374 964.874 246.255 963.945 247.902C959.251 256.226 935.712 252.084 925.416 250.274C917.715 248.919 909.184 246.77 899.847 243.157C885.527 237.619 871.004 231.999 870.773 223.838Z" fill="#AA4BA3"/>
<path d="M768.247 237.226C749.09 232.514 735.757 229.237 724.186 217.907C713.55 207.495 709.724 195.493 708.595 191.809C707.443 188.05 706.216 182.749 705.884 169.44C705.402 150.188 705.111 140.566 708.256 128.429C709.398 124.026 714.835 104.365 731.981 85.7241C741.956 74.8817 751.69 68.947 757.062 65.7272C775.72 54.5459 793.27 50.8448 803.495 49.4586C813.04 48.1639 826.929 46.4184 844.167 50.8143C869.122 57.176 884.266 72.1194 888.228 76.234C904.808 93.4449 909.75 112.184 912.292 122.328C914.38 130.67 919.467 152.097 911.953 176.896C909.57 184.763 905.866 196.486 895.345 206.722C888.916 212.975 882.947 215.754 872.976 220.279C863.205 224.716 859.388 225.336 817.392 235.87C805.407 238.876 797.496 240.886 786.21 240.276C779.225 239.9 774.212 238.693 768.247 237.226Z" fill="#CC62CA"/>
<path d="M833.65 53.0779C832.989 52.739 833.314 51.7357 834.05 51.851C840.381 52.8406 848.637 54.8607 857.555 59.121C861.595 61.0529 879.426 69.6448 892.464 89.9636C901.524 104.077 906.709 120.02 904.666 121.145C902.71 122.22 895.467 108.988 874.84 86.2354C863.899 74.1695 856.799 67.8112 848.742 62.1714C843.099 58.2228 837.886 55.2504 833.65 53.0779Z" fill="#A43B98"/>
<path d="M763.331 224.856C766.917 222.274 771.652 218.071 774.855 211.638C778.152 205.015 777.905 199.901 780.278 199.436C784.189 198.674 785.846 212.373 794.852 215.366C804.664 218.627 817.577 207.306 819.593 205.537C827.009 199.037 827.697 194.085 832.473 193.336C839.461 192.241 841.207 204.51 849.419 205.876C860.339 207.693 873.639 189.733 879.584 175.711C884.041 165.198 883.736 158.382 885.346 158.426C888.094 158.501 893.7 178.484 886.363 197.064C884.902 200.765 880.248 211.184 869.416 218.755C864.332 222.307 861.373 222.796 842.98 227.568C813.56 235.2 809.103 237.075 798.241 237.058C787.602 237.041 780.783 235.227 775.194 232.652C769.805 230.167 765.863 227.113 763.331 224.856Z" fill="#8D2282"/>
<path d="M764.349 70.9804C763.868 70.272 754.117 74.8239 744.691 82.504C729.368 94.9902 722.532 109.527 720.966 113.008C712.52 131.791 712.876 150.368 714.187 150.629C715.255 150.839 716.868 138.946 725.033 120.464C728.897 111.716 732.835 102.803 740.285 93.3498C752.002 78.4809 764.908 71.8074 764.349 70.9804Z" fill="#F6A2ED"/>
<path d="M799.259 243.497C794.504 243.155 787.44 242.884 778.923 243.497C767.176 244.344 763.36 245.937 750.453 247.903C734.774 250.293 726.894 251.191 718.594 249.598C701.671 246.347 693.842 236.264 689.446 239.769C686.155 242.392 688.002 250.062 689.785 254.004C692.923 260.942 699.732 263.541 705.714 265.866C722.918 272.557 738.909 269.137 744.352 267.9C748.135 267.039 746.474 267.036 764.01 260.443C779.54 254.607 787.383 251.686 791.125 251.631C800.055 251.499 807.02 255.048 820.95 262.138C834.918 269.249 832.779 270.632 840.947 273.662C840.947 273.662 860.785 281.023 881.28 272.984C885.313 271.401 889.336 269.218 892.465 265.188C895.847 260.83 898.369 254.072 896.193 251.97C894.346 250.187 890.058 252.672 885.008 254.343C876.616 257.122 869.811 256.309 856.199 254.682C837.158 252.407 833.247 247.198 811.46 244.514C806.2 243.866 801.899 243.612 799.259 243.497Z" fill="#2A8AC4"/>
<path d="M773.158 247.224C766.512 247.96 762.231 249.353 756.666 250.953C744.098 254.566 737.814 256.372 731.927 257.053C726.887 257.636 718.489 256.538 701.691 254.342C694.889 253.454 691.395 252.841 689.32 249.936C685.66 244.808 689.483 236.802 690.008 235.701C693.435 228.526 699.99 225.326 705.813 222.483C708.924 220.964 717.814 216.985 730.209 216.721C739.072 216.531 745.569 218.327 753.229 220.449C763.705 223.347 773.341 228.024 775.219 228.922C784.902 233.549 786.875 235.745 792.053 235.701C797.144 235.657 799.273 233.505 807.515 229.6C807.515 229.6 817.463 224.889 830.193 221.466C837.731 219.439 846.485 217.083 857.68 218.077C863.93 218.632 875.83 219.686 886.198 228.583C890.055 231.895 896.725 236.867 897.881 245.191C898.081 246.625 898.925 252.719 895.132 257.392C892.871 260.178 889.885 261.327 885.856 262.476C876.318 265.195 869.682 267.086 860.087 266.205C854.769 265.716 854.413 264.917 833.972 257.731C814.735 250.97 809.569 249.753 805.109 248.919C801.262 248.201 794.717 247.163 786.556 246.886C782.811 246.757 778.544 246.628 773.158 247.224Z" fill="#BD4CB4"/>
<path d="M754.005 136.686C751.985 140.258 750.792 144.667 750.792 149.446C750.792 161.333 758.181 170.968 767.291 170.968C776.405 170.968 783.79 161.333 783.79 149.446C783.79 146.511 783.339 143.715 782.523 141.166L754.005 136.686Z" fill="#23251A"/>
<path d="M773.84 151.308C776.086 151.308 777.907 149.487 777.907 147.241C777.907 144.995 776.086 143.174 773.84 143.174C771.593 143.174 769.772 144.995 769.772 147.241C769.772 149.487 771.593 151.308 773.84 151.308Z" fill="white"/>
<path d="M865.989 134.988C868.009 138.561 869.202 142.97 869.202 147.749C869.202 159.635 861.814 169.271 852.703 169.271C843.589 169.271 836.204 159.635 836.204 147.749C836.204 144.814 836.655 142.018 837.472 139.469L865.989 134.988Z" fill="#23251A"/>
<path d="M859.25 149.613C861.496 149.613 863.317 147.792 863.317 145.546C863.317 143.299 861.496 141.479 859.25 141.479C857.004 141.479 855.183 143.299 855.183 145.546C855.183 147.792 857.004 149.613 859.25 149.613Z" fill="white"/>
<path d="M810.925 174.961C816.249 174.676 820.906 180.808 821.326 188.661L823.736 188.532C823.255 179.56 817.469 172.575 810.813 172.931C804.156 173.287 799.15 180.848 799.632 189.823L802.041 189.694C801.621 181.841 805.597 175.246 810.925 174.961Z" fill="#23251A"/>
<path d="M755.505 780.905C753.675 776.675 739.189 783.457 716.528 782.261C701.517 781.468 692.475 777.679 689.753 781.922C687.455 785.508 691.607 791.809 692.464 793.107C699.616 803.953 714.952 804.458 719.918 804.63C724.534 804.79 732.058 805.054 739.576 800.563C744.697 797.506 747.832 793.425 750.421 790.056C754.278 785.037 756.207 782.529 755.505 780.905Z" fill="#BF7626"/>
<path d="M944.628 792.09C972.712 794.255 977.328 796.804 993.434 797.851C1004.54 798.573 1010.64 797.902 1011.74 800.902C1012.88 804.01 1007.95 809.162 1003.26 811.748C995.756 815.883 987.517 814.171 977.505 812.087C971.167 810.768 966.374 808.989 959.202 806.325C956.542 805.338 952.071 803.607 946.662 800.902C941.429 798.285 933.949 794.544 934.46 792.768C934.854 791.398 939.846 791.72 944.628 792.09Z" fill="#BF7626"/>
<path d="M762.283 742.27C759.179 741.243 756.515 741.697 753.132 742.27C750.828 742.66 744.425 743.836 738.897 749.048C737.067 750.773 734.542 753.156 733.474 757.183C733.057 758.759 732.02 762.667 733.813 765.317C736.843 769.791 746.137 768.011 753.132 766.673C763.903 764.612 771.251 763.205 772.79 757.861C774.42 752.19 768.831 744.432 762.283 742.27Z" fill="#5E6B66"/>
<path d="M942.185 750.062C948.811 748.235 954.528 747.411 958.772 747.011C971.163 745.842 979.928 747.449 990.502 749.384C996.308 750.448 1000.73 751.59 1004.92 754.807C1006.84 756.278 1009.66 758.498 1010.69 762.263C1011.93 766.774 1010.39 772.692 1006.36 774.804C1003.99 776.051 1001.72 775.461 993.743 773.448C988.337 772.085 982.9 770.825 977.518 769.381C963.876 765.72 964.001 766.961 955.884 764.297C951.519 762.863 937.446 758.244 937.856 753.79C938.012 752.116 940.171 750.885 942.185 750.062Z" fill="#5E6B66"/>
<path d="M777.407 764.298C777.045 763.237 776.028 762.823 758.505 759.214C747.958 757.041 745.829 756.675 742.511 756.502C736.288 756.173 731.672 756.821 726.88 757.519C717.068 758.946 709.747 760.013 702.162 764.636C701.121 765.27 695.027 768.626 690.892 774.804C689.445 776.967 688.76 778.685 689.075 780.566C689.55 783.413 692.187 785.176 693.438 785.989C702.89 792.144 722.636 789.999 725.063 789.717C732.669 788.833 741.474 787.812 752.327 783.278C763.674 778.539 779.085 769.195 777.407 764.298Z" fill="#7E918A"/>
<path d="M919.887 776.838C919.721 770.978 926.994 766.27 930.044 764.297C932.129 762.949 938.124 759.42 952.112 758.875C959.036 758.603 977.098 758.705 995.895 768.704C1006.27 774.225 1009.47 778.821 1010.96 781.583C1014.23 787.66 1014.13 793.893 1014.11 794.462C1014.03 797.374 1013.99 799.255 1013.06 800.902C1008.36 809.226 984.825 805.084 974.529 803.274C966.828 801.919 958.297 799.77 948.96 796.157C934.64 790.619 920.117 784.999 919.887 776.838Z" fill="#7E918A"/>
<path d="M817.36 790.226C798.204 785.514 784.87 782.237 773.299 770.907C762.664 760.495 758.837 748.493 757.708 744.809C756.556 741.05 755.329 735.749 754.997 722.44C754.516 703.188 754.224 693.566 757.37 681.429C758.512 677.026 763.948 657.365 781.095 638.724C791.069 627.882 800.803 621.947 806.175 618.727C824.833 607.546 842.383 603.845 852.609 602.459C862.153 601.164 876.042 599.418 893.28 603.814C918.236 610.176 933.379 625.119 937.341 629.234C953.922 646.445 958.863 665.184 961.405 675.328C963.493 683.67 968.58 705.097 961.066 729.896C958.684 737.763 954.979 749.486 944.459 759.722C938.029 765.975 932.061 768.754 922.089 773.279C912.318 777.716 908.502 778.336 866.505 788.87C854.52 791.876 846.61 793.886 835.323 793.276C828.338 792.9 823.325 791.693 817.36 790.226Z" fill="#AECEC4"/>
<path d="M882.763 606.078C882.102 605.739 882.428 604.736 883.163 604.851C889.494 605.841 897.751 607.861 906.668 612.121C910.708 614.053 928.539 622.645 941.578 642.964C950.637 657.077 955.823 673.02 953.779 674.145C951.823 675.22 944.58 661.988 923.953 639.235C913.013 627.169 905.912 620.811 897.856 615.171C892.212 611.223 887 608.25 882.763 606.078Z" fill="#829991"/>
<path d="M812.444 777.856C816.03 775.274 820.765 771.071 823.968 764.638C827.266 758.015 827.018 752.901 829.391 752.436C833.302 751.674 834.959 765.373 843.965 768.366C853.777 771.627 866.69 760.306 868.707 758.537C876.122 752.037 876.81 747.085 881.586 746.336C888.575 745.241 890.32 757.51 898.532 758.876C909.453 760.693 922.752 742.733 928.697 728.711C933.154 718.198 932.849 711.382 934.459 711.426C937.208 711.501 942.814 731.484 935.476 750.064C934.015 753.765 929.361 764.184 918.529 771.755C913.445 775.307 910.487 775.796 892.093 780.568C862.674 788.2 858.217 790.075 847.354 790.058C836.715 790.041 829.896 788.227 824.307 785.652C818.918 783.167 814.976 780.113 812.444 777.856Z" fill="#748780"/>
<path d="M813.462 623.98C812.981 623.272 803.23 627.824 793.804 635.504C778.481 647.99 771.645 662.527 770.079 666.008C761.633 684.791 761.989 703.368 763.301 703.629C764.368 703.839 765.982 691.946 774.146 673.464C778.01 664.716 781.949 655.803 789.398 646.35C801.115 631.481 814.021 624.807 813.462 623.98Z" fill="#CCEAE0"/>
<path d="M848.372 796.497C843.617 796.155 836.554 795.884 828.036 796.497C816.289 797.344 812.473 798.937 799.566 800.903C783.887 803.293 776.007 804.191 767.707 802.598C750.784 799.347 742.955 789.264 738.559 792.769C735.268 795.392 737.115 803.062 738.898 807.004C742.036 813.942 748.846 816.541 754.828 818.866C772.032 825.557 788.022 822.137 793.466 820.9C797.248 820.039 795.587 820.036 813.124 813.443C828.653 807.607 836.496 804.686 840.238 804.631C849.169 804.499 856.134 808.048 870.064 815.138C884.031 822.249 881.892 823.632 890.061 826.662C890.061 826.662 909.898 834.023 930.393 825.984C934.426 824.401 938.45 822.218 941.578 818.188C944.96 813.83 947.482 807.072 945.306 804.97C943.459 803.187 939.171 805.672 934.121 807.343C925.73 810.122 918.924 809.309 905.312 807.682C886.271 805.407 882.36 800.198 860.574 797.514C855.314 796.866 851.012 796.612 848.372 796.497Z" fill="#DD882C"/>
<path d="M822.271 800.224C815.625 800.96 811.344 802.353 805.779 803.953C793.212 807.566 786.928 809.372 781.041 810.053C776.001 810.636 767.602 809.538 750.805 807.342C744.002 806.454 740.508 805.841 738.434 802.936C734.773 797.808 738.596 789.802 739.122 788.701C742.548 781.526 749.103 778.326 754.926 775.483C758.037 773.964 766.928 769.985 779.322 769.721C788.185 769.531 794.682 771.327 802.342 773.449C812.819 776.347 822.454 781.024 824.332 781.922C834.015 786.549 835.988 788.745 841.167 788.701C846.257 788.657 848.386 786.505 856.629 782.6C856.629 782.6 866.576 777.889 879.306 774.466C886.844 772.439 895.599 770.083 906.794 771.077C913.043 771.632 924.943 772.686 935.311 781.583C939.168 784.895 945.838 789.867 946.994 798.191C947.194 799.625 948.038 805.719 944.245 810.392C941.985 813.178 938.999 814.327 934.969 815.476C925.431 818.195 918.795 820.086 909.2 819.205C903.882 818.716 903.526 817.917 883.085 810.731C863.848 803.97 858.683 802.753 854.222 801.919C850.375 801.201 843.831 800.163 835.669 799.886C831.924 799.757 827.657 799.628 822.271 800.224Z" fill="#95ADA4"/>
<path d="M813.491 685.789C818.558 681.84 823.872 678.675 829.183 676.316C830.674 675.651 829.932 673.394 828.339 673.753C822.283 675.112 816.222 677.915 810.752 682.179C805.346 686.392 801.181 691.517 798.385 696.984C797.636 698.451 799.639 699.746 800.659 698.451C804.211 693.967 808.515 689.669 813.491 685.789Z" fill="#23251A"/>
<path d="M906.573 685.789C901.506 681.84 896.192 678.675 890.881 676.316C889.389 675.651 890.132 673.394 891.725 673.753C897.781 675.112 903.841 677.915 909.312 682.179C914.718 686.392 918.883 691.517 921.679 696.984C922.428 698.451 920.425 699.746 919.405 698.451C915.853 693.967 911.549 689.669 906.573 685.789Z" fill="#23251A"/>
<path d="M859.079 740.789C868.337 740.789 875.842 734.34 875.842 726.385C875.842 718.43 868.337 711.98 859.079 711.98C849.821 711.98 842.315 718.43 842.315 726.385C842.315 734.34 849.821 740.789 859.079 740.789Z" fill="#23251A"/>
<path d="M87.9367 200L87.8407 170.624C87.8407 156.992 82.3687 150.56 71.0407 150.56C65.9527 150.56 60.2887 152.576 57.2167 156.512V125.12H43.0087V200H57.2167V171.584C57.2167 164.288 59.7127 161.216 65.4727 161.216C71.0407 161.216 73.7287 164.288 73.7287 171.584V200H87.9367ZM118.839 150.56C110.199 150.56 103.095 154.208 98.3915 159.008L106.935 166.304C110.295 163.424 113.463 162.272 116.631 162.272C120.471 162.272 123.351 164.768 123.351 170.048H115.959C102.903 170.048 94.1675 174.464 94.1675 186.08C94.1675 194.912 99.8315 200.48 109.911 200.48C117.207 200.48 121.143 197.984 123.351 194.72V200H138.231V171.2C138.231 157.568 131.799 150.56 118.839 150.56ZM123.351 183.488C123.351 187.52 121.623 190.688 115.287 190.688C111.735 190.688 109.047 189.152 109.047 185.696C109.047 182.24 111.351 180.8 118.167 180.8H123.351V183.488ZM177.919 200.48C190.015 200.48 199.519 191.072 199.519 175.52C199.519 159.008 190.015 150.56 177.919 150.56C173.023 150.56 166.303 152.096 162.175 157.568V151.04H147.295V217.76H162.175V193.472C166.303 198.944 173.023 200.48 177.919 200.48ZM173.407 162.272C180.607 162.272 184.639 167.84 184.639 175.52C184.639 183.296 180.607 188.768 173.407 188.768C166.207 188.768 162.175 183.296 162.175 175.52C162.175 167.84 166.207 162.272 173.407 162.272ZM236.296 200.48C248.393 200.48 257.897 191.072 257.897 175.52C257.897 159.008 248.393 150.56 236.296 150.56C231.4 150.56 224.68 152.096 220.552 157.568V151.04H205.672V217.76H220.552V193.472C224.68 198.944 231.4 200.48 236.296 200.48ZM231.785 162.272C238.984 162.272 243.016 167.84 243.016 175.52C243.016 183.296 238.984 188.768 231.785 188.768C224.584 188.768 220.552 183.296 220.552 175.52C220.552 167.84 224.584 162.272 231.785 162.272ZM310.008 151.04H295.224L284.184 181.856L273.048 151.04H258.264L274.488 192.128C276.984 200.864 273.624 203.648 270.456 203.648C268.152 203.648 265.08 202.496 262.488 201.152L260.28 210.464C263.448 213.824 268.824 215.264 272.28 215.264C282.264 215.264 286.104 210.08 293.88 191.168L310.008 151.04Z" fill="#3DACDA"/>
<path d="M974.104 102.92C967.624 102.92 962.296 105.656 958.768 109.256L965.176 114.728C967.696 112.568 970.072 111.704 972.448 111.704C975.328 111.704 977.488 113.576 977.488 117.536H971.944C962.152 117.536 955.6 120.848 955.6 129.56C955.6 136.184 959.848 140.36 967.408 140.36C972.88 140.36 975.832 138.488 977.488 136.04V140H988.648V118.4C988.648 108.176 983.824 102.92 974.104 102.92ZM977.488 127.616C977.488 130.64 976.192 133.016 971.44 133.016C968.776 133.016 966.76 131.864 966.76 129.272C966.76 126.68 968.488 125.6 973.6 125.6H977.488V127.616ZM1028.53 140L1028.46 117.968C1028.46 107.744 1024.36 102.92 1015.86 102.92C1012.04 102.92 1007.8 104.432 1005.49 107.384V103.28H994.836V140H1005.49V118.688C1005.49 113.216 1007.36 110.912 1011.68 110.912C1015.86 110.912 1017.88 113.216 1017.88 118.688V140H1028.53ZM1060.6 103.28V108.176C1057.51 104.072 1052.47 102.92 1048.79 102.92C1039.72 102.92 1032.59 109.256 1032.59 121.64C1032.59 133.304 1039.72 140.36 1048.79 140.36C1052.47 140.36 1057.51 139.208 1060.6 135.104C1060.6 143.024 1055.85 144.896 1051.1 144.896C1047.28 144.896 1043.39 143.888 1038.14 141.872L1033.24 149C1040.95 152.744 1048.29 153.68 1053.26 153.68C1062.76 153.68 1071.76 149 1071.76 135.536V103.28H1060.6ZM1052.18 131.576C1046.78 131.576 1043.75 127.472 1043.75 121.64C1043.75 115.88 1046.78 111.704 1052.18 111.704C1057.58 111.704 1060.6 115.88 1060.6 121.64C1060.6 127.472 1057.58 131.576 1052.18 131.576ZM1101.47 114.008L1103.06 105.44C1101.9 104 1099.96 102.92 1097.3 102.92C1092.33 102.92 1089.52 105.296 1088.37 109.328V103.28H1077.21V140H1088.37V125.168C1088.37 116.456 1089.81 111.704 1096.14 111.704C1099.17 111.704 1100.97 113.504 1101.47 114.008ZM1144.48 103.28H1133.39L1125.11 126.392L1116.76 103.28H1105.67L1117.84 134.096C1119.71 140.648 1117.19 142.736 1114.81 142.736C1113.08 142.736 1110.78 141.872 1108.84 140.864L1107.18 147.848C1109.56 150.368 1113.59 151.448 1116.18 151.448C1123.67 151.448 1126.55 147.56 1132.38 133.376L1144.48 103.28Z" fill="#CC62CA"/>
<path d="M1635.83 385.864C1635.83 384.352 1637.7 383.704 1639 383.704C1641.88 383.704 1644.47 385.216 1646.34 387.16L1652.61 380.896C1649.08 376.72 1643.1 374.92 1638.06 374.92C1632.95 374.92 1624.67 377.296 1624.67 385C1624.67 389.392 1627.48 392.2 1633.74 395.296C1638.57 397.672 1641.16 398.968 1641.16 401.272C1641.16 402.784 1640.01 403.576 1637.78 403.576C1635.4 403.576 1631.87 402.136 1628.92 399.112L1622.44 405.592C1626.33 409.984 1633.17 412.36 1638.71 412.36C1646.34 412.36 1652.32 408.688 1652.32 401.92C1652.32 396.736 1648.5 393.712 1642.74 391.12C1636.98 388.456 1635.83 387.592 1635.83 385.864ZM1675.18 374.92C1668.7 374.92 1663.38 377.656 1659.85 381.256L1666.26 386.728C1668.78 384.568 1671.15 383.704 1673.53 383.704C1676.41 383.704 1678.57 385.576 1678.57 389.536H1673.02C1663.23 389.536 1656.68 392.848 1656.68 401.56C1656.68 408.184 1660.93 412.36 1668.49 412.36C1673.96 412.36 1676.91 410.488 1678.57 408.04V412H1689.73V390.4C1689.73 380.176 1684.9 374.92 1675.18 374.92ZM1678.57 399.616C1678.57 402.64 1677.27 405.016 1672.52 405.016C1669.86 405.016 1667.84 403.864 1667.84 401.272C1667.84 398.68 1669.57 397.6 1674.68 397.6H1678.57V399.616ZM1709.99 374.92C1700.92 374.92 1693.79 381.976 1693.79 393.64C1693.79 406.024 1700.92 412.36 1709.99 412.36C1713.66 412.36 1718.7 411.208 1721.8 407.104V412H1732.96V355.84H1721.8V380.176C1718.7 376.072 1713.66 374.92 1709.99 374.92ZM1713.37 403.576C1707.97 403.576 1704.95 399.4 1704.95 393.64C1704.95 387.808 1707.97 383.704 1713.37 383.704C1718.77 383.704 1721.8 387.808 1721.8 393.64C1721.8 399.4 1718.77 403.576 1713.37 403.576Z" fill="#239B53"/>
<path d="M747.826 473V398.12H732.946V473H747.826ZM780.63 423.56C766.998 423.56 754.998 432.584 754.998 448.616C754.998 464.648 766.998 473.48 780.63 473.48C794.262 473.48 806.262 464.648 806.262 448.616C806.262 432.584 794.262 423.56 780.63 423.56ZM780.63 435.272C787.83 435.272 791.382 440.84 791.382 448.616C791.382 456.296 787.83 461.768 780.63 461.768C773.43 461.768 769.878 456.296 769.878 448.616C769.878 440.84 773.43 435.272 780.63 435.272ZM828.68 473H837.992L860.744 424.04H846.152L833.288 452.648L820.424 424.04H805.736L828.68 473ZM909.661 453.32V448.424C909.661 434.216 900.349 423.56 885.373 423.56C870.685 423.56 861.181 434.408 861.181 448.424C861.181 462.44 870.685 473.48 886.237 473.48C895.165 473.48 901.789 470.408 906.973 465.32L898.141 457.16C895.261 460.232 890.845 461.768 887.005 461.768C881.533 461.768 876.061 458.6 876.061 453.032L909.661 453.32ZM894.781 444.008H876.061C876.061 438.728 880.189 435.272 885.373 435.272C890.749 435.272 894.781 438.728 894.781 444.008ZM936.543 423.56C924.447 423.56 914.943 432.968 914.943 448.52C914.943 465.032 924.447 473.48 936.543 473.48C941.439 473.48 948.159 471.944 952.287 466.472V473H967.167V398.12H952.287V430.568C948.159 425.096 941.439 423.56 936.543 423.56ZM941.055 461.768C933.855 461.768 929.823 456.2 929.823 448.52C929.823 440.744 933.855 435.272 941.055 435.272C948.255 435.272 952.287 440.744 952.287 448.52C952.287 456.2 948.255 461.768 941.055 461.768Z" fill="#D19C26"/>
<path d="M29.837 719.672C23.597 721.88 20.525 718.904 20.525 711.416V693.752H29.837V682.04H20.525V669.56H5.64499V682.04H0.364985V693.752H5.64499V712.472C5.64499 726.488 10.925 731.48 19.853 731.48C25.133 731.48 28.013 730.328 29.837 729.176V719.672ZM81.9655 731L81.8695 701.624C81.8695 687.992 76.3975 681.56 65.0695 681.56C59.9815 681.56 54.3175 683.576 51.2455 687.512V656.12H37.0375V731H51.2455V702.584C51.2455 695.288 53.7415 692.216 59.5015 692.216C65.0695 692.216 67.7575 695.288 67.7575 702.584V731H81.9655ZM104.951 665.432C104.951 661.688 101.783 658.52 97.5592 658.52C93.5272 658.52 90.1672 661.688 90.1672 665.432C90.1672 669.368 93.5272 672.44 97.5592 672.44C101.783 672.44 104.951 669.368 104.951 665.432ZM104.855 731V682.04H90.0712V731H104.855ZM145.434 696.344L147.546 684.92C146.01 683 143.418 681.56 139.866 681.56C133.242 681.56 129.498 684.728 127.962 690.104V682.04H113.082V731H127.962V711.224C127.962 699.608 129.882 693.272 138.33 693.272C142.362 693.272 144.762 695.672 145.434 696.344ZM167.802 696.152C167.802 694.136 170.298 693.272 172.026 693.272C175.866 693.272 179.322 695.288 181.818 697.88L190.17 689.528C185.466 683.96 177.498 681.56 170.778 681.56C163.962 681.56 152.922 684.728 152.922 695C152.922 700.856 156.666 704.6 165.018 708.728C171.45 711.896 174.906 713.624 174.906 716.696C174.906 718.712 173.37 719.768 170.394 719.768C167.226 719.768 162.522 717.848 158.586 713.816L149.946 722.456C155.13 728.312 164.25 731.48 171.642 731.48C181.818 731.48 189.786 726.584 189.786 717.56C189.786 710.648 184.698 706.616 177.018 703.16C169.338 699.608 167.802 698.456 167.802 696.152ZM223.943 719.672C217.703 721.88 214.631 718.904 214.631 711.416V693.752H223.943V682.04H214.631V669.56H199.751V682.04H194.471V693.752H199.751V712.472C199.751 726.488 205.031 731.48 213.959 731.48C219.239 731.48 222.119 730.328 223.943 729.176V719.672ZM280.008 682.04H265.224L254.184 712.856L243.048 682.04H228.264L244.488 723.128C246.984 731.864 243.624 734.648 240.456 734.648C238.152 734.648 235.08 733.496 232.488 732.152L230.28 741.464C233.448 744.824 238.824 746.264 242.28 746.264C252.264 746.264 256.104 741.08 263.88 722.168L280.008 682.04Z" fill="#BF7626"/>
<path d="M1028.26 725.504C1023.58 727.16 1021.28 724.928 1021.28 719.312V706.064H1028.26V697.28H1021.28V687.92H1010.12V697.28H1006.16V706.064H1010.12V720.104C1010.12 730.616 1014.08 734.36 1020.78 734.36C1024.74 734.36 1026.9 733.496 1028.26 732.632V725.504ZM1044.93 684.824C1044.93 682.016 1042.56 679.64 1039.39 679.64C1036.37 679.64 1033.85 682.016 1033.85 684.824C1033.85 687.776 1036.37 690.08 1039.39 690.08C1042.56 690.08 1044.93 687.776 1044.93 684.824ZM1044.86 734V697.28H1033.77V734H1044.86ZM1075.41 708.008L1076.99 699.44C1075.84 698 1073.89 696.92 1071.23 696.92C1066.26 696.92 1063.45 699.296 1062.3 703.328V697.28H1051.14V734H1062.3V719.168C1062.3 710.456 1063.74 705.704 1070.08 705.704C1073.1 705.704 1074.9 707.504 1075.41 708.008ZM1116 719.24V715.568C1116 704.912 1109.01 696.92 1097.78 696.92C1086.77 696.92 1079.64 705.056 1079.64 715.568C1079.64 726.08 1086.77 734.36 1098.43 734.36C1105.13 734.36 1110.09 732.056 1113.98 728.24L1107.36 722.12C1105.2 724.424 1101.89 725.576 1099.01 725.576C1094.9 725.576 1090.8 723.2 1090.8 719.024L1116 719.24ZM1104.84 712.256H1090.8C1090.8 708.296 1093.89 705.704 1097.78 705.704C1101.81 705.704 1104.84 708.296 1104.84 712.256ZM1136.27 696.92C1127.2 696.92 1120.07 703.976 1120.07 715.64C1120.07 728.024 1127.2 734.36 1136.27 734.36C1139.94 734.36 1144.98 733.208 1148.08 729.104V734H1159.24V677.84H1148.08V702.176C1144.98 698.072 1139.94 696.92 1136.27 696.92ZM1139.65 725.576C1134.25 725.576 1131.23 721.4 1131.23 715.64C1131.23 709.808 1134.25 705.704 1139.65 705.704C1145.05 705.704 1148.08 709.808 1148.08 715.64C1148.08 721.4 1145.05 725.576 1139.65 725.576Z" fill="#748780"/>
<path d="M349.029 294.939C346.028 288.004 322.28 299.123 285.13 297.161C260.52 295.861 245.696 289.649 241.234 296.606C237.467 302.484 244.273 312.814 245.679 314.942C257.403 332.722 282.546 333.55 290.686 333.834C298.254 334.095 310.589 334.528 322.913 327.166C331.309 322.154 336.449 315.464 340.694 309.941C347.017 301.712 350.179 297.6 349.029 294.939Z" fill="#98509A"/>
<path d="M659.078 313.273C705.119 316.823 712.687 321.002 739.091 322.719C757.305 323.902 767.295 322.802 769.096 327.72C770.963 332.815 762.895 341.261 755.205 345.5C742.897 352.279 729.389 349.473 712.976 346.056C702.585 343.894 694.728 340.977 682.971 336.61C678.609 334.993 671.28 332.154 662.412 327.72C653.833 323.43 641.57 317.296 642.409 314.384C643.054 312.139 651.238 312.667 659.078 313.273Z" fill="#98509A"/>
<path d="M360.141 231.598C355.051 229.915 350.684 230.659 345.138 231.598C341.36 232.237 330.864 234.165 321.801 242.711C318.801 245.539 314.661 249.446 312.911 256.047C312.228 258.63 310.527 265.037 313.467 269.382C318.434 276.716 333.67 273.799 345.138 271.605C362.797 268.226 374.843 265.92 377.366 257.158C380.038 247.862 370.876 235.143 360.141 231.598Z" fill="#23709A"/>
<path d="M655.072 244.371C665.935 241.376 675.308 240.026 682.265 239.37C702.579 237.453 716.948 240.087 734.284 243.26C743.802 245.005 751.054 246.877 757.927 252.15C761.072 254.562 765.689 258.201 767.384 264.374C769.418 271.77 766.889 281.471 760.288 284.933C756.393 286.978 752.676 286.011 739.596 282.71C730.734 280.477 721.821 278.41 712.998 276.043C690.633 270.042 690.839 272.075 677.531 267.708C670.374 265.358 647.304 257.784 647.976 250.483C648.232 247.738 651.771 245.721 655.072 244.371Z" fill="#23709A"/>
<path d="M384.935 267.711C384.341 265.972 382.674 265.294 353.947 259.377C336.656 255.815 333.166 255.215 327.726 254.932C317.525 254.393 309.957 255.454 302.1 256.598C286.014 258.938 274.012 260.688 261.577 268.267C259.871 269.306 249.881 274.807 243.102 284.936C240.729 288.481 239.607 291.298 240.124 294.382C240.902 299.05 245.225 301.939 247.275 303.272C262.772 313.363 295.144 309.846 299.122 309.385C311.591 307.934 326.026 306.262 343.818 298.827C362.421 291.059 387.686 275.74 384.935 267.711Z" fill="#3C85BC"/>
<path d="M618.516 288.268C618.244 278.661 630.168 270.943 635.169 267.709C638.586 265.498 648.415 259.714 671.347 258.819C682.699 258.375 712.309 258.541 743.125 274.933C760.139 283.984 765.378 291.519 767.818 296.047C773.185 306.01 773.013 316.228 772.985 317.162C772.852 321.935 772.785 325.018 771.262 327.719C763.567 341.365 724.977 334.575 708.097 331.608C695.473 329.386 681.487 325.863 666.179 319.94C642.703 310.861 618.894 301.648 618.516 288.268Z" fill="#3C85BC"/>
<path d="M450.434 310.217C419.03 302.494 397.171 297.121 378.201 278.546C360.765 261.476 354.492 241.801 352.641 235.761C350.752 229.599 348.741 220.909 348.196 199.089C347.407 167.528 346.929 151.754 352.086 131.856C353.958 124.638 362.871 92.4054 390.981 61.845C407.333 44.07 423.291 34.3407 432.098 29.0621C462.686 10.7314 491.458 4.66381 508.221 2.39123C523.868 0.268675 546.638 -2.59289 574.898 4.6138C615.81 15.0432 640.637 39.5415 647.132 46.287C674.314 74.5026 682.415 105.224 686.583 121.854C690.005 135.529 698.346 170.657 686.027 211.313C682.121 224.209 676.048 243.429 658.801 260.209C648.26 270.461 638.475 275.017 622.128 282.435C606.109 289.709 599.852 290.725 531.003 307.995C511.355 312.923 498.386 316.218 479.884 315.218C468.432 314.601 460.214 312.623 450.434 310.217Z" fill="#60C6F0"/>
<path d="M557.656 8.32333C556.572 7.76768 557.106 6.12298 558.312 6.3119C568.691 7.93438 582.226 11.246 596.845 18.2304C603.469 21.3976 632.701 35.4832 654.077 68.7939C668.929 91.9309 677.43 118.068 674.08 119.913C670.874 121.674 659 99.9822 625.183 62.6819C607.247 42.901 595.606 32.4771 582.399 23.2312C573.147 16.758 564.601 11.885 557.656 8.32333Z" fill="#2282B5"/>
<path d="M442.375 289.94C448.254 285.706 456.016 278.816 461.267 268.269C466.673 257.412 466.268 249.028 470.157 248.266C476.569 247.016 479.286 269.475 494.05 274.382C510.136 279.727 531.306 261.168 534.612 258.268C546.769 247.611 547.897 239.493 555.726 238.265C567.184 236.47 570.045 256.584 583.508 258.824C601.411 261.802 623.215 232.358 632.961 209.371C640.267 192.135 639.767 180.961 642.406 181.034C646.913 181.156 656.103 213.916 644.073 244.377C641.679 250.444 634.05 267.525 616.291 279.938C607.957 285.761 603.106 286.561 572.951 294.385C524.721 306.898 517.415 309.97 499.606 309.943C482.165 309.915 470.985 306.942 461.823 302.719C452.988 298.646 446.526 293.64 442.375 289.94Z" fill="#18649E"/>
<path d="M444.044 37.675C443.255 36.5137 427.269 43.976 411.817 56.5669C386.696 77.0368 375.489 100.868 372.922 106.575C359.075 137.368 359.659 167.823 361.809 168.251C363.559 168.596 366.204 149.098 379.589 118.799C385.924 104.458 392.38 89.8443 404.593 74.3475C423.802 49.9714 444.961 39.0308 444.044 37.675Z" fill="#ABDAE4"/>
<path d="M501.275 320.5C493.479 319.939 481.9 319.494 467.936 320.5C448.678 321.889 442.421 324.5 421.262 327.723C395.558 331.64 382.639 333.113 369.032 330.501C341.289 325.173 328.453 308.642 321.247 314.388C315.851 318.688 318.879 331.263 321.802 337.725C326.947 349.099 338.11 353.36 347.917 357.172C376.122 368.141 402.337 362.534 411.261 360.506C417.462 359.095 414.739 359.089 443.488 348.282C468.947 338.714 481.805 333.924 487.939 333.835C502.581 333.618 513.999 339.436 536.836 351.06C559.734 362.717 556.228 364.984 569.619 369.952C569.619 369.952 602.141 382.021 635.74 368.841C642.353 366.246 648.948 362.667 654.077 356.061C659.622 348.915 663.756 337.836 660.189 334.391C657.16 331.468 650.132 335.541 641.852 338.28C628.095 342.837 616.937 341.503 594.623 338.836C563.407 335.108 556.995 326.567 521.278 322.167C512.654 321.105 505.603 320.689 501.275 320.5Z" fill="#AD4AA5"/>
<path d="M458.486 326.611C447.59 327.816 440.572 330.1 431.448 332.723C410.845 338.646 400.543 341.607 390.892 342.724C382.63 343.68 368.861 341.88 341.323 338.279C330.171 336.823 324.443 335.818 321.042 331.056C315.041 322.649 321.309 309.525 322.17 307.719C327.788 295.956 338.534 290.71 348.08 286.049C353.18 283.559 367.755 277.036 388.075 276.603C402.605 276.292 413.257 279.236 425.814 282.715C442.989 287.466 458.786 295.133 461.864 296.606C477.739 304.19 480.973 307.791 489.463 307.719C497.809 307.646 501.298 304.118 514.811 297.717C514.811 297.717 531.12 289.994 551.989 284.382C564.347 281.059 578.699 277.197 597.052 278.825C607.298 279.737 626.807 281.465 643.804 296.05C650.127 301.479 661.062 309.63 662.957 323.277C663.285 325.627 664.668 335.618 658.451 343.28C654.745 347.847 649.849 349.731 643.243 351.614C627.607 356.071 616.727 359.171 600.997 357.727C592.279 356.926 591.696 355.615 558.185 343.835C526.647 332.75 518.179 330.756 510.866 329.389C504.56 328.211 493.83 326.511 480.45 326.055C474.311 325.844 467.315 325.633 458.486 326.611Z" fill="#3DACDA"/>
<path d="M439.598 213.257C453.714 213.257 465.157 198.331 465.157 179.919C465.157 161.506 453.714 146.58 439.598 146.58C425.481 146.58 414.038 161.506 414.038 179.919C414.038 198.331 425.481 213.257 439.598 213.257Z" fill="#23251A"/>
<path d="M446.267 174.917C449.95 174.917 452.935 171.932 452.935 168.25C452.935 164.567 449.95 161.582 446.267 161.582C442.585 161.582 439.6 164.567 439.6 168.25C439.6 171.932 442.585 174.917 446.267 174.917Z" fill="white"/>
<path d="M600.183 212.701C614.299 212.701 625.742 197.774 625.742 179.362C625.742 160.95 614.299 146.023 600.183 146.023C586.066 146.023 574.623 160.95 574.623 179.362C574.623 197.774 586.066 212.701 600.183 212.701Z" fill="#23251A"/>
<path d="M606.848 174.361C610.531 174.361 613.516 171.376 613.516 167.693C613.516 164.011 610.531 161.025 606.848 161.025C603.166 161.025 600.181 164.011 600.181 167.693C600.181 171.376 603.166 174.361 606.848 174.361Z" fill="white"/>
<path d="M521.257 242.696C511.45 243.218 502.943 233.211 502.254 220.342L497.814 220.581C498.603 235.289 509.177 246.68 521.435 246.024C533.692 245.368 542.988 232.911 542.205 218.203L537.765 218.442C538.454 231.311 531.064 242.168 521.257 242.696Z" fill="#23251A"/>
<path d="M321.609 805.21C318.565 798.175 294.472 809.455 256.784 807.465C231.818 806.146 216.778 799.844 212.252 806.901C208.43 812.865 215.335 823.344 216.762 825.503C228.656 843.542 254.163 844.381 262.421 844.669C270.098 844.934 282.612 845.374 295.115 837.905C303.632 832.82 308.847 826.033 313.153 820.43C319.568 812.082 322.775 807.91 321.609 805.21Z" fill="#7E918A"/>
<path d="M636.151 823.814C682.859 827.416 690.537 831.655 717.323 833.397C735.801 834.597 745.936 833.481 747.763 838.47C749.657 843.639 741.472 852.207 733.671 856.508C721.185 863.385 707.481 860.538 690.83 857.072C680.289 854.879 672.318 851.919 660.39 847.489C655.965 845.849 648.53 842.968 639.534 838.47C630.83 834.118 618.389 827.895 619.241 824.941C619.895 822.664 628.198 823.199 636.151 823.814Z" fill="#7E918A"/>
<path d="M332.883 740.955C327.72 739.247 323.289 740.002 317.663 740.955C313.83 741.603 303.182 743.559 293.988 752.228C290.944 755.098 286.745 759.06 284.969 765.757C284.276 768.378 282.551 774.878 285.533 779.286C290.572 786.727 306.029 783.767 317.663 781.541C335.578 778.113 347.799 775.774 350.358 766.885C353.069 757.454 343.774 744.551 332.883 740.955Z" fill="#AA6622"/>
<path d="M632.086 753.912C643.106 750.874 652.616 749.504 659.673 748.839C680.282 746.894 694.859 749.566 712.446 752.785C722.102 754.555 729.458 756.454 736.431 761.804C739.622 764.25 744.306 767.942 746.025 774.205C748.089 781.708 745.524 791.55 738.827 795.062C734.876 797.136 731.104 796.155 717.835 792.807C708.844 790.541 699.803 788.444 690.851 786.042C668.162 779.955 668.371 782.018 654.871 777.587C647.61 775.203 624.206 767.519 624.888 760.113C625.147 757.328 628.738 755.282 632.086 753.912Z" fill="#AA6622"/>
<path d="M358.035 777.59C357.432 775.826 355.741 775.138 326.598 769.135C309.056 765.521 305.516 764.913 299.997 764.625C289.648 764.078 281.971 765.155 274 766.316C257.681 768.689 245.505 770.465 232.89 778.154C231.159 779.208 221.024 784.788 214.147 795.065C211.74 798.661 210.601 801.519 211.126 804.647C211.915 809.382 216.3 812.314 218.38 813.666C234.102 823.903 266.942 820.335 270.979 819.867C283.628 818.396 298.273 816.699 316.322 809.157C335.195 801.276 360.826 785.735 358.035 777.59Z" fill="#BF7626"/>
<path d="M595.001 798.446C594.725 788.7 606.821 780.871 611.895 777.59C615.361 775.346 625.333 769.478 648.597 768.571C660.113 768.12 690.152 768.289 721.415 784.918C738.675 794.1 743.991 801.744 746.465 806.338C751.911 816.445 751.736 826.812 751.708 827.759C751.572 832.601 751.505 835.729 749.96 838.469C742.153 852.313 703.004 845.425 685.879 842.415C673.072 840.16 658.884 836.586 643.354 830.577C619.538 821.366 595.384 812.02 595.001 798.446Z" fill="#BF7626"/>
<path d="M424.482 820.712C392.623 812.877 370.447 807.426 351.202 788.582C333.514 771.265 327.149 751.305 325.272 745.177C323.356 738.926 321.315 730.11 320.763 707.973C319.962 675.956 319.478 659.952 324.709 639.767C326.608 632.444 335.65 599.744 364.167 568.741C380.757 550.709 396.946 540.838 405.881 535.483C436.912 516.887 466.1 510.731 483.107 508.426C498.98 506.273 522.08 503.37 550.75 510.681C592.255 521.261 617.44 546.114 624.03 552.958C651.606 581.582 659.825 612.749 664.052 629.62C667.525 643.493 675.986 679.129 663.489 720.375C659.526 733.458 653.365 752.956 635.868 769.98C625.174 780.38 615.248 785.002 598.664 792.527C582.413 799.906 576.065 800.938 506.218 818.457C486.286 823.457 473.129 826.8 454.358 825.785C442.741 825.16 434.403 823.153 424.482 820.712Z" fill="#EEA224"/>
<path d="M533.258 514.446C532.159 513.883 532.7 512.214 533.923 512.406C544.453 514.052 558.185 517.411 573.016 524.497C579.735 527.71 609.391 542 631.076 575.793C646.144 599.265 654.768 625.782 651.369 627.653C648.116 629.44 636.07 607.433 601.764 569.593C583.568 549.525 571.759 538.95 558.36 529.57C548.974 523.003 540.304 518.06 533.258 514.446Z" fill="#C67D26"/>
<path d="M416.308 800.141C422.271 795.845 430.146 788.855 435.473 778.157C440.958 767.142 440.546 758.636 444.492 757.864C450.997 756.595 453.754 779.38 468.731 784.357C485.05 789.78 506.527 770.953 509.881 768.01C522.214 757.198 523.359 748.963 531.301 747.717C542.925 745.896 545.828 766.302 559.486 768.574C577.648 771.595 599.767 741.725 609.655 718.405C617.067 700.919 616.56 689.583 619.237 689.657C623.809 689.781 633.132 723.016 620.928 753.918C618.499 760.073 610.759 777.401 592.744 789.994C584.288 795.902 579.367 796.713 548.776 804.65C499.847 817.345 492.434 820.462 474.368 820.434C456.674 820.405 445.332 817.39 436.037 813.106C427.074 808.974 420.518 803.895 416.308 800.141Z" fill="#A86A20"/>
<path d="M417.999 544.222C417.199 543.044 400.982 550.614 385.305 563.387C359.821 584.154 348.451 608.331 345.847 614.12C331.799 645.36 332.391 676.256 334.573 676.69C336.348 677.039 339.032 657.259 352.611 626.521C359.037 611.972 365.587 597.147 377.977 581.425C397.464 556.696 418.93 545.597 417.999 544.222Z" fill="#EEDA24"/>
<path d="M476.061 831.143C468.153 830.573 456.405 830.122 442.24 831.143C422.702 832.552 416.355 835.201 394.889 838.471C368.813 842.445 355.707 843.939 341.902 841.289C313.757 835.883 300.736 819.114 293.424 824.942C287.951 829.305 291.023 842.061 293.988 848.617C299.208 860.156 310.533 864.48 320.482 868.347C349.095 879.474 375.69 873.786 384.743 871.729C391.034 870.297 388.272 870.291 417.437 859.327C443.265 849.621 456.309 844.762 462.533 844.671C477.386 844.452 488.97 850.353 512.138 862.146C535.367 873.972 531.811 876.272 545.396 881.311C545.396 881.311 578.389 893.555 612.475 880.184C619.183 877.552 625.874 873.921 631.077 867.219C636.703 859.97 640.897 848.73 637.278 845.235C634.205 842.27 627.075 846.402 618.676 849.181C604.719 853.803 593.4 852.45 570.762 849.745C539.093 845.962 532.588 837.298 496.354 832.834C487.606 831.757 480.452 831.334 476.061 831.143Z" fill="#95ADA4"/>
<path d="M432.651 837.341C421.597 838.565 414.478 840.881 405.222 843.542C384.32 849.551 373.869 852.555 364.078 853.688C355.696 854.658 341.728 852.832 313.791 849.179C302.478 847.702 296.666 846.682 293.216 841.851C287.128 833.322 293.487 820.008 294.36 818.176C300.059 806.242 310.961 800.921 320.645 796.192C325.82 793.666 340.606 787.049 361.22 786.609C375.961 786.293 386.767 789.281 399.506 792.81C416.93 797.629 432.956 805.408 436.079 806.902C452.183 814.596 455.464 818.249 464.077 818.176C472.544 818.102 476.084 814.523 489.793 808.029C489.793 808.029 506.337 800.194 527.51 794.501C540.046 791.13 554.607 787.212 573.225 788.864C583.62 789.788 603.411 791.541 620.654 806.338C627.069 811.845 638.163 820.115 640.085 833.959C640.418 836.344 641.821 846.479 635.513 854.252C631.754 858.886 626.788 860.797 620.085 862.708C604.223 867.228 593.186 870.374 577.228 868.908C568.383 868.096 567.791 866.766 533.795 854.816C501.8 843.57 493.209 841.546 485.791 840.16C479.393 838.965 468.508 837.24 454.934 836.778C448.705 836.563 441.608 836.349 432.651 837.341Z" fill="#DD882C"/>
<path d="M400.431 650.091C410.414 635.159 428.396 629.668 440.588 637.825C441.823 638.648 442.95 639.584 443.97 640.61C444.974 641.619 446.693 640.328 446.073 639.02C444.478 635.655 442.116 632.803 439.01 630.723C427.302 622.893 409.433 629.077 399.1 644.533C396.755 648.039 395.002 651.726 393.824 655.412C393.193 657.391 396.102 658.473 396.913 656.568C397.86 654.358 399.027 652.188 400.431 650.091Z" fill="#23251A"/>
<path d="M588.889 650.091C578.906 635.159 560.924 629.668 548.731 637.825C547.497 638.648 546.37 639.584 545.349 640.61C544.346 641.619 542.627 640.328 543.247 639.02C544.842 635.655 547.204 632.803 550.31 630.723C562.018 622.893 579.887 629.077 590.219 644.533C592.564 648.039 594.317 651.726 595.496 655.412C596.127 657.391 593.218 658.473 592.406 656.568C591.459 654.358 590.293 652.188 588.889 650.091Z" fill="#23251A"/>
<path d="M494.894 729.692C479.736 729.692 466.405 723.587 458.705 714.354C459.624 729.365 475.492 741.315 494.934 741.315C514.421 741.315 530.317 729.314 531.168 714.258C523.485 723.542 510.108 729.692 494.894 729.692Z" fill="#23251A"/>
<path d="M505.208 740.571C505.078 740.656 504.351 741.14 504.441 741.563C504.532 741.986 505.354 741.975 506.341 742.442C507.198 742.843 508.049 743.547 508.477 744.297C509.255 745.667 507.885 746.614 508.128 748.587C508.331 750.238 509.593 752.386 511.296 752.431C512.897 752.471 514.453 750.65 514.453 749.122C514.453 747.803 513.291 747.51 513.156 745.932C513.043 744.641 513.675 743.023 514.746 742.6C516.386 741.952 518.742 744.229 519.87 745.977C521.786 748.948 521.431 752.38 521.284 753.621C520.856 757.296 519.34 757.978 519.729 760.746C519.808 761.304 520.247 764.404 522.542 765.306C524.92 766.242 528.128 764.37 528.641 762.296C528.973 760.954 527.976 760.368 526.098 756.36C524.853 753.699 524.193 752.29 523.996 750.368C523.776 748.22 524.407 748.046 524.977 743.987C525.535 739.99 524.965 739.906 525.512 735.87C526.031 732.054 526.38 730.002 525.709 729.585C524.977 729.134 516.386 735.712 514.323 736.704C510.495 738.559 506.73 739.562 505.208 740.571Z" fill="#60A0F0"/>
</svg>
